HIERARCHY
ROOT Hips
{
	OFFSET 0.00000 0.00000 0.00000
	CHANNELS 6 Xposition Yposition Zposition Yrotation Zrotation Xrotation 
	JOINT Lumbar
	{
		OFFSET 0 0 0
		CHANNELS 3 Zrotation Xrotation Yrotation
		JOINT Neck
		{
			OFFSET 0.00 0.2701 0.00
			CHANNELS 3 Zrotation Xrotation Yrotation
			End Site
			{
				OFFSET 0.00 0.1379 0.00
			}
		}
		JOINT RightShoulder
		{
			OFFSET 0.0119 0.2289 0.1181
			CHANNELS 3 Zrotation Xrotation Yrotation
			JOINT RightElbow
			{
				OFFSET 0.00 -0.1475 0.00
				CHANNELS 2 Zrotation Yrotation
				JOINT RightWrist
				{
					OFFSET 0.00 -0.1605 0.00
					CHANNELS 2 Zrotation Xrotation
					End Site
					{
						OFFSET 0.0040 -0.1068 0.0006
					}
				}
			}
		}
		JOINT LeftShoulder
		{
			OFFSET 0.0119 0.2289 -0.1181
			CHANNELS 3 Zrotation Xrotation Yrotation
			JOINT LeftElbow
			{
				OFFSET 0.00 -0.1475 0.00
				CHANNELS 2 Zrotation Yrotation
				JOINT LeftWrist
				{
					OFFSET 0.00 -0.1605 0.00
					CHANNELS 2 Zrotation Xrotation
					End Site
					{
						OFFSET 0.0040 -0.1068 -0.0006
					}
				}
			}
		}
	}
	JOINT RightHip
	{
		OFFSET 0.0316 -0.0424 0.0458
		CHANNELS 3 Zrotation Xrotation Yrotation
		JOINT RightKnee
		{
			OFFSET 0.00 -0.2438 0.00
			CHANNELS 1 Zrotation
			JOINT RightAnkle
			{
				OFFSET 0.00 -0.2449 0.00
				CHANNELS 3 Zrotation Xrotation Yrotation
				End Site
				{
					OFFSET 0.1237 -0.0542 0.0051
				}
			}
		}
	}
	JOINT LeftHip
	{
		OFFSET 0.0316 -0.0424 -0.0458
		CHANNELS 3 Zrotation Xrotation Yrotation
		JOINT LeftKnee
		{
			OFFSET 0.00 -0.2438 0.00
			CHANNELS 1 Zrotation
			JOINT LeftAnkle
			{
				OFFSET 0.00 -0.2449 0.00
				CHANNELS 3 Zrotation Xrotation Yrotation
				End Site
				{
					OFFSET 0.1237 -0.0542 -0.0051
				}
			}
		}
	}
}
MOTION
Frames: 33
Frame Time: 0.02
0.00012 -1e-05 0.00013 23.05877 -24.22749 -7.07655 42.19367 2.48141 -5.24019 -12.78323 -1.75843 -1.14989 71.84853 -102.60923 55.63043 5.788 106.04802 13.46271 2.79201 52.03206 102.45167 -55.62889 6.66559 -91.22872 10.74443 0.84209 37.95376 -2.38815 -9.85661 -21.74814 -6.72538 -2.56252 -3.46491 43.49108 9.1378 3.02958 -27.57081 -6.65878 2.15347 3.26541
0.00037 3e-05 -0 23.03697 -24.21508 -7.07335 42.21385 2.47454 -5.22312 -12.7965 -1.76009 -1.15092 71.84296 -102.62253 55.6308 5.78789 106.04663 13.47009 2.78924 52.15936 102.46715 -55.62941 6.65666 -91.18714 10.74693 0.80687 37.90591 -2.41359 -9.98505 -21.74834 -6.72046 -2.54831 -3.45843 43.43399 9.16056 3.1285 -27.56567 -6.65533 2.14162 3.26024
0.00061 6e-05 -0.00013 23.01521 -24.20271 -7.07017 42.23399 2.46768 -5.2061 -12.8097 -1.76174 -1.15194 71.83757 -102.63579 55.63117 5.78778 106.04526 13.47741 2.78651 52.28631 102.48262 -55.62993 6.64776 -91.14563 10.74939 0.77174 37.85817 -2.43899 -10.11328 -21.74854 -6.71554 -2.53412 -3.45197 43.37704 9.1832 3.22692 -27.56055 -6.65189 2.12983 3.25508
0.00085 0.0001 -0.00026 22.99347 -24.19033 -7.06698 42.25411 2.46082 -5.18908 -12.82292 -1.7634 -1.15296 71.83204 -102.64905 55.63153 5.78767 106.04388 13.48476 2.78376 52.41323 102.49807 -55.63044 6.63885 -91.10418 10.75188 0.73663 37.81047 -2.46437 -10.24137 -21.74874 -6.71063 -2.51996 -3.44551 43.32012 9.20588 3.3255 -27.55542 -6.64846 2.11802 3.24992
0.00109 0.00014 -0.00039 22.97168 -24.17793 -7.06377 42.27426 2.45396 -5.17202 -12.83619 -1.76506 -1.15399 71.82626 -102.66237 55.6319 5.78756 106.04248 13.49218 2.78095 52.54048 102.5135 -55.63096 6.62992 -91.06268 10.75441 0.70145 37.76268 -2.48977 -10.36954 -21.74895 -6.70571 -2.5058 -3.43905 43.26308 9.22869 3.42466 -27.55028 -6.64502 2.10616 3.24473
0.00133 0.00018 -0.00052 22.95 -24.16561 -7.06066 42.29436 2.4471 -5.15509 -12.84926 -1.76669 -1.15501 71.8217 -102.67547 55.63227 5.78745 106.04117 13.49929 2.77841 52.66682 102.52904 -55.63148 6.62106 -91.02115 10.75674 0.66643 37.71505 -2.51515 -10.49788 -21.74913 -6.70079 -2.49155 -3.43258 43.20634 9.25099 3.52154 -27.5452 -6.64158 2.09451 3.23965
0.00157 0.00022 -0.00065 22.92813 -24.15313 -7.05736 42.31455 2.44025 -5.13791 -12.86273 -1.76838 -1.15604 71.81467 -102.68899 55.63264 5.78734 106.03966 13.50702 2.77532 52.79484 102.54437 -55.632 6.61207 -90.97972 10.75946 0.6311 37.66714 -2.54056 -10.62583 -21.74937 -6.69589 -2.47748 -3.42614 43.14904 9.27427 3.62283 -27.53999 -6.63815 2.08245 3.23435
0.00181 0.00025 -0.00078 22.90644 -24.1408 -7.05423 42.33465 2.43339 -5.12095 -12.87583 -1.77002 -1.15706 71.80995 -102.70213 55.633 5.78723 106.03835 13.51417 2.77273 52.9213 102.55987 -55.63251 6.6032 -90.93824 10.76183 0.59608 37.6195 -2.56593 -10.75399 -21.74955 -6.69097 -2.46326 -3.41967 43.09226 9.29668 3.7202 -27.5349 -6.63471 2.07076 3.22925
0.00205 0.00029 -0.00091 22.88494 -24.12866 -7.05132 42.35467 2.4265 -5.10432 -12.88849 -1.77159 -1.15808 71.80798 -102.71481 55.63336 5.78713 106.03725 13.52064 2.77079 53.04596 102.5757 -55.63302 6.59447 -90.89649 10.76375 0.56137 37.57213 -2.59133 -10.88308 -21.74968 -6.68601 -2.44878 -3.41314 43.0361 9.3179 3.81221 -27.52995 -6.63126 2.05955 3.22442
0.0023 0.00033 -0.00104 22.86224 -24.11542 -7.04715 42.37523 2.41973 -5.08596 -12.90371 -1.77354 -1.15914 71.78998 -102.73015 55.63376 5.78701 106.03485 13.53109 2.76523 53.18133 102.58998 -55.63358 6.58493 -90.85567 10.7682 0.52467 37.52302 -2.6168 -11.00884 -21.75014 -6.68122 -2.43558 -3.4069 42.97631 9.34559 3.93337 -27.5242 -6.62787 2.04566 3.21811
0.00253 0.00037 -0.00117 22.84215 -24.10453 -7.04564 42.39461 2.41272 -5.07117 -12.91348 -1.77467 -1.1601 71.8059 -102.73988 55.63407 5.78691 106.03526 13.53313 2.76725 53.29384 102.60732 -55.63402 6.57711 -90.81329 10.76731 0.49228 37.47771 -2.64193 -11.14031 -21.74991 -6.67611 -2.41983 -3.4001 42.92425 9.35987 3.99413 -27.52014 -6.62436 2.03736 3.21488
0.00271 0.00039 -0.00129 22.82872 -24.09981 -7.05154 42.41104 2.40505 -5.0668 -12.90868 -1.77365 -1.16076 71.91501 -102.73387 55.63413 5.7869 106.04261 13.51179 2.7907 53.34534 102.63473 -55.6341 6.57387 -90.76338 10.75169 0.47083 37.44186 -2.66798 -11.29877 -21.74765 -6.66985 -2.39554 -3.39114 42.89291 9.33504 3.87835 -27.52069 -6.62045 2.04517 3.22063
0.00286 0.0004 -0.00141 22.81803 -24.0975 -7.06009 42.42621 2.39714 -5.06592 -12.89834 -1.77178 -1.16132 72.05816 -102.72229 55.6341 5.78691 106.05284 13.48203 2.82162 53.37373 102.66489 -55.63405 6.57239 -90.71249 10.73071 0.45383 37.41001 -2.6934 -11.461 -21.74473 -6.66333 -2.36895 -3.38173 42.86944 9.29719 3.70397 -27.52295 -6.61644 2.05844 3.22939
0.00303 0.00042 -0.00153 22.80642 -24.09425 -7.06737 42.44179 2.38932 -5.06304 -12.89029 -1.77021 -1.16194 72.18566 -102.71349 55.63411 5.7869 106.06232 13.45633 2.84871 53.41133 102.69269 -55.63405 6.57021 -90.66422 10.71223 0.43538 37.37695 -2.71789 -11.61395 -21.7422 -6.65713 -2.34442 -3.37292 42.84269 9.26681 3.5634 -27.52447 -6.61252 2.06873 3.23646
0.00321 0.00043 -0.00165 22.79336 -24.09032 -7.07494 42.45813 2.38157 -5.06185 -12.88317 -1.76898 -1.16254 72.31403 -102.70364 55.63411 5.7869 106.06974 13.42973 2.8777 53.45363 102.7252 -55.6341 6.56761 -90.6069 10.69346 0.41463 37.34132 -2.7474 -11.79834 -21.7393 -6.6501 -2.31562 -3.36245 42.81463 9.22981 3.39223 -27.52583 -6.60842 2.08116 3.24493
0.00336 0.00045 -0.00177 22.78408 -24.08839 -7.08253 42.47249 2.37362 -5.05804 -12.87284 -1.76686 -1.16314 72.44864 -102.69465 55.6341 5.7869 106.08179 13.40289 2.90444 53.48155 102.74852 -55.63402 6.56631 -90.56803 10.67403 0.39962 37.312 -2.76645 -11.91878 -21.737 -6.64472 -2.29514 -3.35532 42.79125 9.20354 3.27114 -27.52792 -6.60466 2.09038 3.25115
0.00345 0.00045 -0.00189 22.78356 -24.09131 -7.08934 42.48265 2.36508 -5.04546 -12.8547 -1.7623 -1.16375 72.59214 -102.68947 55.6341 5.7869 106.10879 13.37855 2.92358 53.46814 102.7462 -55.63358 6.56822 -90.58173 10.65421 0.40024 37.29898 -2.7557 -11.85664 -21.73658 -6.64397 -2.29855 -3.35771 42.77823 9.20969 3.30051 -27.53164 -6.60184 2.08983 3.2507
0.00352 0.00046 -0.00201 22.7869 -24.0962 -7.0961 42.4907 2.35636 -5.0302 -12.83361 -1.7569 -1.16437 72.74074 -102.68531 55.6341 5.78691 106.1398 13.35407 2.94007 53.44256 102.73445 -55.63301 6.57144 -90.61374 10.63389 0.40632 37.29223 -2.73471 -11.73121 -21.73677 -6.64488 -2.31032 -3.36344 42.76978 9.22709 3.3825 -27.53603 -6.59937 2.0858 3.24785
0.0036 0.00046 -0.00213 22.78914 -24.1002 -7.103 42.49906 2.34777 -5.01665 -12.81404 -1.752 -1.16498 72.88701 -102.68067 55.6341 5.7869 106.16706 13.32895 2.95749 53.42719 102.72675 -55.63252 6.57397 -90.63652 10.61376 0.40936 37.28265 -2.71907 -11.63779 -21.73662 -6.64503 -2.31802 -3.36754 42.75961 9.23964 3.44207 -27.54009 -6.59674 2.08306 3.24592
0.00369 0.00047 -0.00225 22.78882 -24.10413 -7.10952 42.51006 2.33897 -5.00132 -12.79343 -1.74658 -1.1656 73.03455 -102.67603 55.6341 5.78691 106.20253 13.30649 2.97643 53.39072 102.72018 -55.63195 6.57672 -90.66329 10.59364 0.41494 37.27299 -2.70024 -11.52981 -21.73667 -6.6452 -2.32684 -3.37212 42.74809 9.25086 3.49411 -27.54432 -6.59411 2.08165 3.24478
0.00376 0.00047 -0.00237 22.79461 -24.10878 -7.11677 42.51515 2.3306 -4.98883 -12.77445 -1.74204 -1.1662 73.18017 -102.67153 55.6341 5.78691 106.22187 13.27859 2.99135 53.39625 102.70892 -55.63151 6.57958 -90.68588 10.5734 0.41643 37.2651 -2.68591 -11.43831 -21.73651 -6.64572 -2.33528 -3.37644 42.74052 9.26741 3.57405 -27.54834 -6.59157 2.07666 3.24143
0.00375 0.00046 -0.00249 22.81698 -24.11396 -7.12623 42.50366 2.32306 -4.98644 -12.75987 -1.74014 -1.16674 73.31919 -102.66861 55.6341 5.78689 106.19399 13.23524 2.99689 53.51539 102.68766 -55.63143 6.58034 -90.69456 10.55333 0.40554 37.25925 -2.68411 -11.39676 -21.73527 -6.64695 -2.34116 -3.37975 42.74117 9.29864 3.72845 -27.55154 -6.58915 2.06195 3.23198
0.00373 0.00045 -0.0026 22.84518 -24.11998 -7.13637 42.48646 2.31606 -4.98666 -12.7472 -1.73914 -1.16727 73.45577 -102.66547 55.6341 5.78694 106.14928 13.18644 2.99814 53.67836 102.66196 -55.63149 6.58175 -90.6981 10.53307 0.3903 37.25523 -2.68756 -11.37575 -21.7339 -6.64846 -2.34628 -3.38258 42.74587 9.33457 3.9081 -27.55451 -6.58683 2.04383 3.22044
0.00371 0.00044 -0.00272 22.87038 -24.12623 -7.14607 42.47239 2.30908 -4.9847 -12.73419 -1.73773 -1.16782 73.59358 -102.66166 55.63411 5.78687 106.11432 13.14057 3.00073 53.82482 102.63772 -55.63149 6.58395 -90.70255 10.51271 0.37679 37.25116 -2.69028 -11.35295 -21.73283 -6.64976 -2.35139 -3.38527 42.7497 9.3664 4.06901 -27.55762 -6.58449 2.02778 3.21025
0.0037 0.00043 -0.00284 22.89746 -24.12993 -7.15636 42.45594 2.30092 -4.98699 -12.71882 -1.73635 -1.16832 73.73181 -102.66151 55.6341 5.78689 106.07371 13.09315 3.00619 53.95626 102.61511 -55.63149 6.58074 -90.71334 10.49328 0.36438 37.24383 -2.68599 -11.29727 -21.73071 -6.65147 -2.35827 -3.38955 42.74962 9.40622 4.25995 -27.56059 -6.58201 2.00962 3.19838
0.00367 0.00042 -0.00295 22.92163 -24.13916 -7.16556 42.44315 2.29543 -4.98088 -12.70888 -1.73508 -1.1689 73.86762 -102.65321 55.6341 5.78708 106.03697 13.04721 3.0042 54.12976 102.58868 -55.63151 6.59005 -90.70987 10.47168 0.34876 37.24386 -2.69726 -11.31426 -21.73078 -6.65237 -2.36121 -3.39042 42.75857 9.43124 4.39672 -27.5638 -6.57988 1.99481 3.1894
0.0036 0.00041 -0.00307 22.93904 -24.16315 -7.17169 42.44154 2.29642 -4.95273 -12.71354 -1.73433 -1.16971 74.0046 -102.62656 55.63414 5.78648 106.04699 13.01056 2.98676 54.40797 102.54872 -55.63153 6.62523 -90.66499 10.44568 0.32379 37.2617 -2.75373 -11.54029 -21.73662 -6.6509 -2.3532 -3.38146 42.79158 9.40657 4.35034 -27.56782 -6.57856 1.99257 3.1902
0.00352 0.0004 -0.00318 22.95282 -24.19269 -7.17666 42.44386 2.30022 -4.91576 -12.7237 -1.73359 -1.17061 74.13763 -102.59099 55.63402 5.78741 106.05485 12.9748 2.96116 54.72771 102.50609 -55.63156 6.67533 -90.60668 10.41708 0.29605 37.28719 -2.82506 -11.83646 -21.74471 -6.64861 -2.34129 -3.36917 42.83347 9.36807 4.25273 -27.57207 -6.57763 1.99345 3.19377
0.00345 0.0004 -0.00329 22.96641 -24.21993 -7.18215 42.4446 2.30325 -4.88157 -12.73119 -1.7326 -1.17147 74.26794 -102.55676 55.63419 5.78705 106.0435 12.93622 2.93672 55.02832 102.46716 -55.6316 6.72323 -90.5563 10.38887 0.27053 37.31054 -2.88736 -12.09216 -21.75196 -6.64676 -2.33129 -3.35871 42.87123 9.34112 4.19716 -27.57617 -6.57664 1.99119 3.19519
0.00338 0.00039 -0.00342 22.98784 -24.24641 -7.18782 42.44431 2.3042 -4.85239 -12.73906 -1.7327 -1.17231 74.41811 -102.53379 55.63416 5.78463 106.11942 12.90797 2.92316 55.32942 102.41674 -55.63159 6.74871 -90.49717 10.36459 0.24066 37.32845 -2.95954 -12.38519 -21.75842 -6.64467 -2.32061 -3.34686 42.90962 9.29282 4.06619 -27.58049 -6.57515 1.99578 3.20017
0.0033 0.00038 -0.00351 22.99218 -24.27558 -7.19265 42.44714 2.31009 -4.81097 -12.74792 -1.7305 -1.17322 74.52491 -102.48547 55.63363 5.79263 106.01003 12.8581 2.88473 55.64143 102.39071 -55.63169 6.82833 -90.45423 10.33079 0.21942 37.35929 -3.01451 -12.6164 -21.76706 -6.64285 -2.31051 -3.33716 42.94864 9.28475 4.07614 -27.58437 -6.57477 1.98726 3.19859
0.00323 0.00039 -0.00351 22.94878 -24.31236 -7.19697 42.45795 2.32933 -4.73513 -12.75424 -1.72201 -1.17434 74.51924 -102.36656 55.63521 5.77955 105.41784 12.75279 2.78159 55.95281 102.42321 -55.63203 7.02111 -90.44942 10.27796 0.22127 37.42568 -3.01896 -12.66382 -21.78117 -6.64207 -2.30235 -3.33397 42.98818 9.39887 4.51858 -27.58721 -6.57744 1.93868 3.17675
0.00317 0.00039 -0.00346 22.88856 -24.35132 -7.2002 42.47176 2.35337 -4.6478 -12.76221 -1.71115 -1.17554 74.4668 -102.22227 55.63284 5.7861 104.63454 12.62575 2.6528 56.2788 102.48169 -55.63243 7.27437 -90.46293 10.21473 0.23213 37.50445 -3.00545 -12.64582 -21.7974 -6.64156 -2.29503 -3.33311 43.0278 9.55251 5.09871 -27.58954 -6.58117 1.87739 3.1485
